HIERARCHY
ROOT root
{
	OFFSET 0.000000 0.000000 0.000000
	CHANNELS 6 Xposition Yposition Zposition Zrotation Yrotation Xrotation
	JOINT lhip
	{
		OFFSET 0.058581 -0.082280 -0.017664
		CHANNELS 3 Zrotation Yrotation Xrotation
		JOINT lknee
		{
			OFFSET 0.043451 -0.386469 0.008037
			CHANNELS 3 Zrotation Yrotation Xrotation
			JOINT lankle
			{
				OFFSET -0.014790 -0.426874 -0.037428
				CHANNELS 3 Zrotation Yrotation Xrotation
				JOINT ltoe
				{
					OFFSET 0.041054 -0.060286 0.122042
					CHANNELS 3 Zrotation Yrotation Xrotation
					End Site
					{
						OFFSET 0.000000 0.000000 0.000000
					}
				}
			}
		}
	}
	JOINT rhip
	{
		OFFSET -0.060310 -0.090513 -0.013543
		CHANNELS 3 Zrotation Yrotation Xrotation
		JOINT rknee
		{
			OFFSET -0.043257 -0.383688 -0.004843
			CHANNELS 3 Zrotation Yrotation Xrotation
			JOINT rankle
			{
				OFFSET 0.019056 -0.420046 -0.034562
				CHANNELS 3 Zrotation Yrotation Xrotation
				JOINT rtoe
				{
					OFFSET -0.034840 -0.062106 0.130323
					CHANNELS 3 Zrotation Yrotation Xrotation
					End Site
					{
						OFFSET 0.000000 0.000000 0.000000
					}
				}
			}
		}
	}
	JOINT lowerback
	{
		OFFSET 0.004439 0.124404 -0.038385
		CHANNELS 3 Zrotation Yrotation Xrotation
		JOINT upperback
		{
			OFFSET 0.004488 0.137956 0.026820
			CHANNELS 3 Zrotation Yrotation Xrotation
			JOINT chest
			{
				OFFSET -0.002265 0.056032 0.002855
				CHANNELS 3 Zrotation Yrotation Xrotation
				JOINT lowerneck
				{
					OFFSET -0.013390 0.211636 -0.033468
					CHANNELS 3 Zrotation Yrotation Xrotation
					JOINT upperneck
					{
						OFFSET 0.010113 0.088937 0.050410
						CHANNELS 3 Zrotation Yrotation Xrotation
						End Site
						{
							OFFSET 0.000000 0.000000 0.000000
						}
					}
				}
				JOINT lclavicle
				{
					OFFSET 0.071702 0.114000 -0.018898
					CHANNELS 3 Zrotation Yrotation Xrotation
					JOINT lshoulder
					{
						OFFSET 0.122921 0.045205 -0.019046
						CHANNELS 3 Zrotation Yrotation Xrotation
						JOINT lelbow
						{
							OFFSET 0.255332 -0.015649 -0.022946
							CHANNELS 3 Zrotation Yrotation Xrotation
							JOINT lwrist
							{
								OFFSET 0.265709 0.012698 -0.007375
								CHANNELS 3 Zrotation Yrotation Xrotation
								End Site
								{
									OFFSET 0.000000 0.000000 0.000000
								}
							}
						}
					}
				}
				JOINT rclavicle
				{
					OFFSET -0.082954 0.112472 -0.023707
					CHANNELS 3 Zrotation Yrotation Xrotation
					JOINT rshoulder
					{
						OFFSET -0.113228 0.046853 -0.008472
						CHANNELS 3 Zrotation Yrotation Xrotation
						JOINT relbow
						{
							OFFSET -0.260127 -0.014369 -0.031269
							CHANNELS 3 Zrotation Yrotation Xrotation
							JOINT rwrist
							{
								OFFSET -0.269108 0.006794 -0.006027
								CHANNELS 3 Zrotation Yrotation Xrotation
								End Site
								{
									OFFSET 0.000000 0.000000 0.000000
								}
							}
						}
					}
				}
			}
		}
	}
}
MOTION
Frames: 7
Frame Time: 0.033333
-0.096530 -0.145810 0.976148 -126.411671 -2.871739 84.359919 -5.184340 -10.964331 -13.115808 -8.791633 -17.513264 20.773677 -4.916335 -14.701253 -7.947656 0.000000 -0.000000 0.000000 -21.616054 -10.202933 4.116567 -8.585328 -11.917375 34.242710 12.897568 0.515933 9.489813 0.000000 -0.000000 0.000000 8.552807 13.508290 2.314193 15.674229 -6.167944 9.088917 10.190738 2.115289 -12.611636 -5.262879 -24.674913 30.740022 4.611117 -19.977563 -8.412409 -0.212709 -34.351829 -2.488024 -87.892205 -38.481167 31.523254 9.308249 -11.306542 3.381853 -24.222435 0.163976 -31.809209 7.690389 34.776288 0.756358 69.063238 37.166602 15.465862 -8.632942 5.913347 -16.212916 27.349510 1.625172 -49.102922 
-0.106423 -0.146446 0.973666 -122.083669 -2.613783 84.681754 -5.354459 -13.266262 -13.967285 -10.331130 -18.394906 22.646075 -4.699706 -14.679487 -8.941191 0.000000 -0.000000 0.000000 -21.842282 -10.601215 5.753919 -7.492245 -10.508135 33.658348 14.006631 0.065497 13.000785 0.000000 -0.000000 0.000000 8.291140 15.056873 0.969137 16.563223 -3.805011 7.595572 10.104094 4.598028 -12.706632 -2.248720 -29.186343 25.814974 3.590392 -24.178527 -6.574515 -1.627344 -29.525230 -3.799864 -86.157274 -40.083773 30.415333 14.144730 -16.347855 -4.271968 -19.736832 -0.686787 -35.730609 13.589712 35.521125 3.396726 59.234461 47.535485 14.458786 -7.364650 9.559984 -3.939926 32.856979 -1.768271 -33.460014 
-0.115656 -0.149718 0.973754 -118.932844 -2.699098 85.647595 -5.781040 -14.469866 -14.962667 -10.989096 -18.771498 23.188701 -4.546956 -14.998660 -9.397505 0.000000 -0.000000 0.000000 -22.311636 -11.020926 5.760880 -6.664605 -9.387900 33.526190 15.223619 -0.591363 16.723998 0.000000 -0.000000 0.000000 8.960179 16.586767 0.437333 15.775001 -0.649273 6.258962 9.270116 6.488123 -12.476286 1.095519 -33.324928 20.536144 3.948211 -25.378842 -6.253674 -1.190493 -26.210710 -6.289067 -83.923219 -42.230946 29.153001 19.801098 -22.772229 -10.282232 -11.211821 0.623072 -35.441273 11.738396 37.075974 1.558327 54.931069 55.122150 14.601063 -8.331487 16.539684 1.191305 31.427001 -2.932757 -23.779254 
-0.124816 -0.152512 0.976671 -115.427982 -3.077744 87.053992 -6.423277 -15.673157 -16.205213 -11.240392 -19.062602 23.317346 -5.595802 -15.505723 -9.188994 0.000000 -0.000000 0.000000 -22.803109 -12.160955 5.384963 -6.596850 -9.249630 33.218178 16.103571 -1.153485 21.888056 0.000000 -0.000000 0.000000 10.138919 17.764792 0.850162 13.532759 1.933710 4.043858 8.166663 7.299227 -12.639068 3.086303 -35.908518 16.732171 4.859172 -23.965847 -6.011613 1.502258 -24.305540 -9.615010 -81.277120 -42.972556 26.748550 27.654004 -28.569317 -17.313466 -2.158075 1.681862 -34.543925 5.417643 39.303779 -2.866926 55.827058 61.349013 16.113822 -11.389991 22.492367 0.484062 27.473103 -3.255587 -16.507399 
-0.133885 -0.153689 0.980949 -111.628703 -3.412581 88.499467 -7.087031 -16.832868 -16.877009 -10.860377 -19.917457 22.330754 -7.103584 -16.328592 -8.892505 0.000000 -0.000000 0.000000 -22.414501 -12.633401 5.170504 -7.149481 -9.903748 32.722109 16.832958 -1.959014 25.579830 0.000000 -0.000000 0.000000 11.339750 18.196519 2.102191 10.711995 4.137921 0.722745 6.895442 8.030283 -12.570953 5.146363 -36.944643 12.305378 4.771969 -23.765463 -4.528921 4.542525 -23.332467 -12.735293 -77.477224 -44.280561 23.642038 37.242052 -31.011680 -25.772067 4.457048 0.333808 -32.069590 -3.137708 40.950309 -9.254436 57.027880 67.216195 17.982908 -14.092010 26.341275 -1.158041 21.157185 -1.109113 -12.633442 
-0.142986 -0.153764 0.984810 -108.035447 -3.493207 89.645064 -7.452406 -17.299903 -17.006834 -10.453181 -21.106607 21.032992 -9.209585 -17.778032 -7.988950 0.000000 -0.000000 0.000000 -21.167626 -12.586313 5.401313 -7.354599 -9.859842 31.892796 16.721269 -2.592007 27.993620 0.000000 -0.000000 0.000000 12.076837 17.931710 1.951882 8.456126 5.297743 0.290406 6.002231 9.184293 -12.734441 5.922863 -37.335895 8.660280 4.916840 -22.624362 -4.349709 6.501524 -23.192182 -16.361802 -70.760239 -45.637924 18.806090 48.234846 -31.896983 -35.210595 7.739540 -1.008019 -28.296673 -11.215604 43.203513 -15.720375 49.000663 72.649598 11.592605 -16.591569 29.089740 -4.177258 16.256806 1.377518 -9.961233 
-0.152888 -0.152592 0.987747 -104.380321 -3.724531 90.923630 -7.809010 -18.219820 -17.189688 -10.166552 -22.440063 19.865717 -10.611843 -18.641993 -7.307372 0.000000 -0.000000 0.000000 -19.902102 -12.735047 5.698345 -7.656287 -10.234257 31.036661 16.740074 -3.716057 29.787230 0.000000 -0.000000 0.000000 12.502594 18.016134 2.573825 5.787735 6.657925 -1.535019 4.661051 10.055353 -13.385327 6.167669 -37.711958 5.669468 4.698403 -22.028014 -3.810856 7.138138 -23.103420 -19.264322 -62.150495 -47.712003 13.807025 57.183813 -32.666541 -42.958746 8.969450 -2.370910 -24.305233 -16.906861 44.399108 -21.261704 35.456101 75.553295 0.739409 -20.918387 32.535709 -8.144045 12.064069 3.879985 -7.399752 
